<svg width="107" height="106" viewBox="0 0 107 106" fill="none" xmlns="http://www.w3.org/2000/svg">
<path d="M48.2015 100.912L48.2616 99.9762L52.0719 100.221L52.0118 101.156L48.2015 100.912Z" fill="#1A1F2C"/>
<path d="M29.5322 97.5641C29.391 97.9753 29.4324 98.3673 29.6564 98.7401C29.8805 99.1129 30.2306 99.4139 30.7067 99.6432C31.0548 99.8108 31.3865 99.9012 31.7018 99.9143C32.0146 99.9262 32.2913 99.8687 32.5321 99.7419C32.7704 99.6138 32.9499 99.4244 33.0707 99.1735C33.1718 98.9636 33.2088 98.7591 33.1817 98.5601C33.1508 98.3623 33.08 98.1753 32.9694 97.9991C32.8576 97.8254 32.73 97.6646 32.5868 97.5168C32.4423 97.3716 32.3064 97.2446 32.179 97.136L31.4839 96.5364C31.305 96.384 31.113 96.2001 30.9078 95.9846C30.7 95.7678 30.5203 95.5221 30.3689 95.2474C30.2136 94.9739 30.1215 94.6742 30.0925 94.348C30.0635 94.0219 30.1378 93.6746 30.3152 93.306C30.5199 92.8811 30.8161 92.5508 31.204 92.315C31.5892 92.0781 32.043 91.9608 32.5653 91.9632C33.085 91.9644 33.6469 92.1104 34.2509 92.4013C34.814 92.6725 35.2579 92.9982 35.5825 93.3783C35.9045 93.7573 36.105 94.166 36.1839 94.6045C36.2603 95.0417 36.2103 95.4827 36.0339 95.9275L35.051 95.4542C35.1684 95.145 35.1869 94.8512 35.1066 94.5728C35.0224 94.2958 34.8687 94.0452 34.6456 93.8211C34.4187 93.5983 34.149 93.4117 33.8368 93.2613C33.4733 93.0863 33.1186 92.988 32.7727 92.9665C32.4255 92.9475 32.1163 93.0035 31.8451 93.1346C31.5726 93.2683 31.3674 93.4784 31.2293 93.7651C31.1036 94.0262 31.0742 94.2737 31.1412 94.5078C31.2082 94.7419 31.3361 94.9674 31.5248 95.1844C31.7136 95.4015 31.9277 95.6149 32.1671 95.8248L33.0015 96.5672C33.5308 97.0396 33.8957 97.526 34.0962 98.0262C34.2968 98.5263 34.2695 99.0414 34.0143 99.5712C33.8023 100.011 33.4984 100.338 33.1026 100.551C32.703 100.765 32.2572 100.866 31.7653 100.853C31.2696 100.841 30.7709 100.715 30.2692 100.473C29.7624 100.229 29.3557 99.9212 29.049 99.5496C28.7411 99.1806 28.5472 98.7845 28.4672 98.3613C28.3847 97.9369 28.4325 97.5232 28.6108 97.1203L29.5322 97.5641Z" fill="#1A1F2C"/>
<path d="M17.7408 88.3336L18.5455 89.0186C18.396 89.2906 18.3062 89.5649 18.276 89.8414C18.2436 90.116 18.2612 90.3847 18.3286 90.6473C18.3921 90.9102 18.4997 91.1585 18.6515 91.3922C18.8032 91.6259 18.9894 91.8366 19.2101 92.0245C19.6124 92.367 20.0635 92.5756 20.5632 92.6504C21.0608 92.7233 21.5744 92.6437 22.1039 92.4118C22.6313 92.178 23.1399 91.7734 23.6297 91.1979C24.1196 90.6225 24.4379 90.0559 24.5845 89.4979C24.729 88.9382 24.7255 88.4185 24.5742 87.9389C24.4206 87.4575 24.1427 87.0455 23.7403 86.703C23.5197 86.5152 23.2819 86.365 23.027 86.2525C22.7721 86.1399 22.5107 86.0722 22.2429 86.0494C21.971 86.0269 21.7021 86.0535 21.4361 86.1293C21.1661 86.2054 20.9097 86.3379 20.6669 86.5266L19.8622 85.8416C20.2119 85.5535 20.581 85.3435 20.9694 85.2116C21.3578 85.0796 21.7511 85.0208 22.1493 85.0352C22.5456 85.0517 22.9334 85.1374 23.3126 85.2924C23.6897 85.4455 24.0459 85.6648 24.3812 85.9502C24.9479 86.4327 25.3341 87.0002 25.5397 87.6528C25.7453 88.3054 25.7573 88.9946 25.5758 89.7206C25.3943 90.4466 25.0052 91.16 24.4085 91.8609C23.8118 92.5618 23.1697 93.0597 22.482 93.3548C21.7942 93.6498 21.1119 93.748 20.4349 93.6492C19.7579 93.5504 19.136 93.2598 18.5692 92.7773C18.2339 92.4918 17.9606 92.1752 17.7493 91.8274C17.5358 91.4778 17.3902 91.1076 17.3125 90.7168C17.2329 90.3282 17.2272 89.9316 17.2955 89.5271C17.3619 89.1248 17.5104 88.7269 17.7408 88.3336Z" fill="#1A1F2C"/>
<path d="M18.5899 80.1928L11.4321 85.1859L9.74498 82.7673C9.3549 82.2081 9.13024 81.6824 9.071 81.1903C9.00943 80.6998 9.08394 80.253 9.29454 79.8498C9.50513 79.4466 9.82129 79.0979 10.243 78.8037C10.6648 78.5095 11.0989 78.3348 11.5453 78.2797C11.9918 78.2246 12.4326 78.3103 12.8677 78.5367C13.3004 78.7648 13.7102 79.1561 14.0971 79.7107L15.4623 81.6679L14.6794 82.214L13.3337 80.2848C13.0671 79.9026 12.7966 79.6341 12.5223 79.4791C12.2463 79.3218 11.9692 79.2622 11.691 79.3004C11.4089 79.3378 11.1245 79.4565 10.8379 79.6565C10.5513 79.8564 10.3382 80.0847 10.1986 80.3414C10.059 80.5981 10.013 80.8848 10.0607 81.2014C10.106 81.5196 10.2636 81.8721 10.5334 82.2589L11.5964 83.7827L17.9853 79.3261L18.5899 80.1928ZM13.0243 79.0666L15.011 75.0621L15.7131 76.0687L13.7069 80.0452L13.0243 79.0666Z" fill="#1A1F2C"/>
<path d="M6.31365 65.7222C7.17746 65.4043 7.98137 65.2855 8.72536 65.3659C9.46936 65.4463 10.1121 65.6957 10.6535 66.1139C11.1949 66.5322 11.5941 67.0907 11.8512 67.7892C12.1083 68.4877 12.1662 69.1717 12.0251 69.8412C11.884 70.5106 11.5563 71.1171 11.0419 71.6606C10.5275 72.2041 9.83834 72.6348 8.97453 72.9527C8.11071 73.2706 7.3068 73.3893 6.56281 73.3089C5.81881 73.2286 5.17611 72.9792 4.63469 72.5609C4.09327 72.1426 3.69404 71.5842 3.43697 70.8857C3.17991 70.1872 3.12194 69.5032 3.26304 68.8337C3.40415 68.1642 3.7319 67.5577 4.24631 67.0143C4.76072 66.4708 5.44983 66.0401 6.31365 65.7222ZM6.66686 66.682C5.95768 66.943 5.4028 67.2819 5.00222 67.6987C4.60067 68.1129 4.34866 68.5674 4.2462 69.0622C4.14276 69.5543 4.18228 70.0484 4.36478 70.5442C4.54727 71.0401 4.8379 71.4433 5.23667 71.7536C5.63446 72.0613 6.12096 72.244 6.69618 72.3017C7.27042 72.3568 7.91213 72.2539 8.62131 71.9929C9.3305 71.7319 9.88587 71.3943 10.2874 70.9801C10.688 70.5633 10.94 70.1088 11.0434 69.6167C11.1459 69.1219 11.1059 68.6265 10.9234 68.1306C10.7409 67.6347 10.4508 67.2329 10.053 66.9252C9.65421 66.6149 9.1677 66.4322 8.59346 66.3771C8.01824 66.3194 7.37604 66.421 6.66686 66.682Z" fill="#1A1F2C"/>
<path d="M9.40697 58.8036L0.720026 59.6416L0.618547 58.5897L8.37232 57.8417L7.98278 53.8036L8.91594 53.7136L9.40697 58.8036Z" fill="#1A1F2C"/>
<path d="M9.24096 47.4194L0.625559 46.0266L0.794227 44.9833L8.48415 46.2265L9.13162 42.2217L10.0571 42.3713L9.24096 47.4194Z" fill="#1A1F2C"/>
<path d="M15.2793 29.6886L13.8832 31.9917L6.42011 27.4675L7.87809 25.0624C8.31695 24.3385 8.8419 23.8096 9.45293 23.4757C10.0615 23.1403 10.7272 23.004 11.4499 23.0667C12.1703 23.128 12.9167 23.3928 13.6892 23.8611C14.4666 24.3324 15.052 24.8766 15.4453 25.4937C15.8362 26.1094 16.0217 26.7733 16.0019 27.4855C15.9796 28.1963 15.7388 28.9307 15.2793 29.6886ZM13.6293 30.602L14.4423 29.2609C14.8163 28.6439 15.0073 28.0603 15.0151 27.5103C15.023 26.9603 14.8675 26.4524 14.5485 25.9866C14.2296 25.5208 13.7664 25.1038 13.1591 24.7357C12.5566 24.3704 11.9783 24.1544 11.4241 24.0876C10.8675 24.0193 10.3541 24.11 9.88374 24.3597C9.41099 24.608 8.99789 25.0237 8.64444 25.6067L7.76965 27.0498L13.6293 30.602Z" fill="#1A1F2C"/>
<path d="M22.2641 14.712C22.9045 15.3732 23.3385 16.0602 23.5661 16.773C23.7938 17.4859 23.8259 18.1745 23.6626 18.8389C23.4993 19.5033 23.1502 20.0944 22.6156 20.6122C22.0809 21.13 21.4789 21.4599 20.8096 21.6019C20.1403 21.7439 19.4531 21.6896 18.7479 21.4393C18.0427 21.1889 17.3699 20.7331 16.7296 20.0719C16.0892 19.4107 15.6552 18.7236 15.4276 18.0108C15.1999 17.2979 15.1678 16.6093 15.3311 15.9449C15.4944 15.2805 15.8435 14.6894 16.3781 14.1716C16.9128 13.6538 17.5148 13.3239 18.1841 13.1819C18.8534 13.04 19.5406 13.0942 20.2458 13.3446C20.951 13.5949 21.6238 14.0507 22.2641 14.712ZM21.5295 15.4234C21.0037 14.8806 20.4692 14.5104 19.9259 14.3128C19.3847 14.1133 18.8671 14.0668 18.3731 14.1734C17.8812 14.2781 17.4455 14.5142 17.0659 14.8818C16.6863 15.2494 16.4354 15.6783 16.313 16.1686C16.1926 16.6569 16.2225 17.1757 16.4025 17.725C16.5846 18.2724 16.9385 18.8175 17.4642 19.3604C17.99 19.9032 18.5235 20.2744 19.0647 20.474C19.608 20.6715 20.1256 20.718 20.6175 20.6134C21.1114 20.5068 21.5482 20.2697 21.9278 19.9021C22.3074 19.5344 22.5573 19.1065 22.6777 18.6182C22.8 18.128 22.7702 17.6091 22.5881 17.0617C22.408 16.5124 22.0552 15.9663 21.5295 15.4234Z" fill="#1A1F2C"/>
<path d="M29.2028 15.1006L22.8409 8.66735L23.7766 8.14038L28.8538 13.4387L28.928 13.3969L27.0589 6.29183L28.0985 5.70631L33.2054 10.9879L33.2797 10.9461L31.3808 3.85776L32.3165 3.33079L34.5198 12.1061L33.5693 12.6414L28.4783 7.52695L28.4189 7.56041L30.1534 14.5652L29.2028 15.1006Z" fill="#1A1F2C"/>
<path d="M43.3248 0.135096L45.5385 8.57694L44.5492 8.83636L38.211 3.41449L38.1285 3.43611L39.8666 10.0643L38.8444 10.3323L36.6307 1.8905L37.6199 1.63108L43.979 7.06511L44.0614 7.0435L42.319 0.398839L43.3248 0.135096Z" fill="#1A1F2C"/>
<path d="M61.8348 4.46528L61.7149 5.39509L57.9281 4.90683L58.048 3.97703L61.8348 4.46528Z" fill="#1A1F2C"/>
<path d="M80.2515 9.00207C80.4188 8.60073 80.4026 8.20687 80.2029 7.8205C80.0032 7.43413 79.6731 7.11129 79.2127 6.85199C78.876 6.6624 78.5508 6.55096 78.237 6.51768C77.9256 6.48579 77.6457 6.52542 77.3973 6.63655C77.1513 6.74909 76.96 6.92664 76.8234 7.16923C76.7091 7.3722 76.6591 7.5739 76.6734 7.77432C76.6915 7.97365 76.7501 8.1648 76.8492 8.34777C76.9497 8.52827 77.0667 8.69686 77.2002 8.85354C77.3351 9.00774 77.4626 9.14314 77.5828 9.25974L78.238 9.90262C78.4067 10.0661 78.5866 10.262 78.7776 10.4902C78.9711 10.7198 79.1346 10.9765 79.2682 11.2604C79.4056 11.5432 79.4783 11.8483 79.4863 12.1756C79.4944 12.5029 79.398 12.8448 79.1973 13.2012C78.9658 13.6121 78.6491 13.9228 78.2469 14.1332C77.8472 14.345 77.3868 14.433 76.8658 14.3971C76.3472 14.3627 75.7959 14.1809 75.2117 13.8519C74.6671 13.5452 74.2451 13.1918 73.9455 12.7916C73.6484 12.3928 73.4746 11.9721 73.4239 11.5294C73.3757 11.0882 73.4538 10.6513 73.6583 10.2187L74.6088 10.754C74.4719 11.0551 74.4346 11.3471 74.497 11.63C74.5632 11.9119 74.7005 12.1718 74.9088 12.4097C75.121 12.6466 75.3781 12.8501 75.6801 13.0202C76.0316 13.2182 76.3793 13.339 76.7231 13.3826C77.0684 13.4238 77.3805 13.3877 77.6596 13.2743C77.9401 13.1583 78.1584 12.9618 78.3145 12.6845C78.4567 12.432 78.5019 12.1869 78.45 11.949C78.3981 11.7111 78.285 11.4778 78.1105 11.2491C77.9361 11.0205 77.7361 10.7937 77.5106 10.5689L76.7255 9.77462C76.2276 9.26924 75.8946 8.76054 75.7265 8.24853C75.5584 7.73651 75.6186 7.22431 75.9072 6.71191C76.147 6.28616 76.4712 5.97968 76.8798 5.79249C77.2924 5.60421 77.7437 5.53233 78.2337 5.57685C78.7277 5.62028 79.2172 5.77862 79.7024 6.05186C80.1925 6.32789 80.5787 6.66112 80.8609 7.05156C81.1445 7.43952 81.3127 7.84723 81.3654 8.27469C81.4206 8.70355 81.3463 9.1133 81.1426 9.50394L80.2515 9.00207Z" fill="#1A1F2C"/>
<path d="M91.4274 18.9691L90.6682 18.2339C90.8348 17.972 90.942 17.7041 90.9898 17.4301C91.0397 17.1581 91.0394 16.8889 90.9889 16.6225C90.9425 16.356 90.851 16.1013 90.7145 15.8584C90.578 15.6155 90.4057 15.3932 90.1975 15.1916C89.8179 14.824 89.3812 14.5869 88.8872 14.4803C88.3954 14.3757 87.8778 14.4222 87.3345 14.6197C86.7932 14.8193 86.2597 15.1905 85.734 15.7333C85.2083 16.2762 84.8544 16.8213 84.6723 17.3687C84.4922 17.918 84.4624 18.4368 84.5827 18.9251C84.7051 19.4154 84.9561 19.8443 85.3357 20.2119C85.5438 20.4135 85.7715 20.5786 86.0186 20.7073C86.2658 20.8359 86.5223 20.9202 86.7882 20.9601C87.058 21 87.3281 20.9907 87.5984 20.9321C87.8727 20.8734 88.137 20.7577 88.3914 20.5848L89.1506 21.3201C88.7832 21.5851 88.4014 21.7711 88.0053 21.8779C87.6092 21.9847 87.213 22.0181 86.8165 21.9783C86.4221 21.9364 86.0406 21.826 85.6721 21.647C85.3056 21.4701 84.9642 21.2284 84.6479 20.9221C84.1132 20.4043 83.7642 19.8132 83.6008 19.1488C83.4375 18.4844 83.4697 17.7958 83.6973 17.0829C83.925 16.3701 84.359 15.683 84.9993 15.0218C85.6397 14.3606 86.3124 13.9048 87.0176 13.6544C87.7228 13.4041 88.4101 13.3498 89.0793 13.4918C89.7486 13.6338 90.3506 13.9636 90.8853 14.4815C91.2016 14.7878 91.4541 15.1213 91.6427 15.4819C91.8333 15.8445 91.9549 16.2233 92.0075 16.6182C92.062 17.0111 92.0422 17.4072 91.9482 17.8065C91.8561 18.2038 91.6825 18.5913 91.4274 18.9691Z" fill="#1A1F2C"/>
<path d="M90.0579 27.0392L97.5209 22.515L99.0496 25.0367C99.4031 25.6198 99.5936 26.1587 99.6212 26.6536C99.6512 27.147 99.5482 27.5882 99.3122 27.9771C99.0762 28.366 98.7383 28.6937 98.2986 28.9603C97.8589 29.2268 97.4145 29.3733 96.9654 29.3997C96.5163 29.4261 96.0819 29.3124 95.6623 29.0585C95.245 28.8031 94.8611 28.3864 94.5106 27.8082L93.2736 25.7675L94.0898 25.2727L95.3092 27.2842C95.5508 27.6826 95.8035 27.968 96.0673 28.1402C96.3327 28.3149 96.6054 28.3921 96.8855 28.3718C97.1694 28.3525 97.4608 28.2523 97.7596 28.0711C98.0584 27.89 98.2857 27.6758 98.4415 27.4285C98.5972 27.1813 98.6615 26.8982 98.6342 26.5792C98.6094 26.2587 98.4747 25.8968 98.2302 25.4935L97.2671 23.9047L90.6057 27.9429L90.0579 27.0392ZM95.5399 28.5197L93.3008 32.3887L92.6646 31.3392L94.9214 27.4994L95.5399 28.5197Z" fill="#1A1F2C"/>
<path d="M101.383 42.2661C100.5 42.528 99.6905 42.595 98.9532 42.4671C98.2159 42.3392 97.5905 42.0492 97.077 41.5971C96.5635 41.145 96.2008 40.5621 95.989 39.8486C95.7773 39.135 95.7632 38.4487 95.9469 37.7897C96.1306 37.1306 96.4966 36.5464 97.0448 36.037C97.5929 35.5275 98.3082 35.1419 99.1906 34.88C100.073 34.6181 100.883 34.5511 101.62 34.679C102.358 34.8069 102.983 35.0969 103.496 35.549C104.01 36.0011 104.373 36.584 104.584 37.2975C104.796 38.0111 104.81 38.6974 104.626 39.3564C104.443 40.0155 104.077 40.5997 103.529 41.1091C102.98 41.6185 102.265 42.0042 101.383 42.2661ZM101.092 41.2856C101.816 41.0706 102.392 40.768 102.818 40.3777C103.245 39.9901 103.526 39.5527 103.66 39.0654C103.795 38.5809 103.787 38.0854 103.637 37.5788C103.486 37.0722 103.222 36.6513 102.844 36.3161C102.467 35.9835 101.993 35.77 101.423 35.6755C100.853 35.5838 100.206 35.6454 99.4816 35.8604C98.7572 36.0755 98.1813 36.3768 97.7541 36.7644C97.3276 37.1547 97.047 37.5921 96.9122 38.0766C96.7783 38.5638 96.7865 39.0607 96.9368 39.5673C97.0872 40.0738 97.351 40.4934 97.7282 40.8259C98.1063 41.1612 98.5801 41.3747 99.1496 41.4665C99.7199 41.5609 100.367 41.5007 101.092 41.2856Z" fill="#1A1F2C"/>
<path d="M97.852 48.9722L106.575 48.6925L106.609 49.7488L98.8229 49.9985L98.9529 54.0532L98.0159 54.0833L97.852 48.9722Z" fill="#1A1F2C"/>
<path d="M97.2879 60.3441L105.796 62.2861L105.561 63.3164L97.9668 61.583L97.064 65.5381L96.15 65.3295L97.2879 60.3441Z" fill="#1A1F2C"/>
<path d="M90.1265 77.6513L91.6673 75.4424L98.8252 80.4354L97.2161 82.7422C96.7318 83.4365 96.174 83.9307 95.5428 84.2248C94.914 84.5204 94.241 84.6138 93.5237 84.5049C92.8088 84.3976 92.0809 84.0856 91.3399 83.5687C90.5943 83.0486 90.045 82.468 89.6921 81.8269C89.3415 81.1875 89.1989 80.513 89.2643 79.8035C89.332 79.0957 89.6194 78.3782 90.1265 77.6513ZM91.8316 76.8455L90.9344 78.1317C90.5216 78.7235 90.2936 79.2937 90.2505 79.8421C90.2075 80.3905 90.3301 80.9073 90.6186 81.3925C90.9071 81.8778 91.3425 82.3236 91.9251 82.7299C92.5029 83.133 93.0662 83.3856 93.6149 83.4878C94.166 83.5916 94.6842 83.534 95.1696 83.3149C95.6572 83.0974 96.0961 82.7091 96.4862 82.1499L97.4517 80.7658L91.8316 76.8455Z" fill="#1A1F2C"/>
<path d="M82.1957 92.1497C81.599 91.4488 81.2099 90.7354 81.0284 90.0094C80.8469 89.2834 80.8589 88.5942 81.0645 87.9416C81.2701 87.289 81.6563 86.7215 82.223 86.239C82.7898 85.7565 83.4117 85.4659 84.0887 85.3671C84.7657 85.2683 85.448 85.3664 86.1357 85.6615C86.8234 85.9566 87.4656 86.4545 88.0623 87.1554C88.659 87.8563 89.048 88.5697 89.2296 89.2957C89.4111 90.0217 89.399 90.7109 89.1935 91.3635C88.9879 92.0161 88.6017 92.5836 88.035 93.0661C87.4682 93.5486 86.8463 93.8392 86.1693 93.938C85.4923 94.0368 84.8099 93.9386 84.1222 93.6436C83.4345 93.3485 82.7924 92.8506 82.1957 92.1497ZM82.9744 91.4867C83.4643 92.0621 83.974 92.4658 84.5035 92.6978C85.0309 92.9316 85.5444 93.0111 86.0442 92.9364C86.5418 92.8635 86.9918 92.6558 87.3941 92.3133C87.7965 91.9708 88.0744 91.5588 88.2279 91.0774C88.3793 90.5978 88.3828 90.0781 88.2383 89.5184C88.0916 88.9604 87.7734 88.3938 87.2835 87.8184C86.7937 87.2429 86.2851 86.8383 85.7577 86.6045C85.2282 86.3726 84.7146 86.293 84.217 86.3659C83.7173 86.4406 83.2662 86.6493 82.8639 86.9918C82.4615 87.3343 82.1847 87.7454 82.0333 88.225C81.8797 88.7064 81.8763 89.2261 82.0229 89.784C82.1674 90.3437 82.4846 90.9113 82.9744 91.4867Z" fill="#1A1F2C"/>
<path d="M75.2965 91.3176L81.2332 98.1452L80.2656 98.6111L75.5384 92.9984L75.4616 93.0354L76.8717 100.246L75.7966 100.763L71.0386 95.1653L70.9619 95.2023L72.4026 102.398L71.4351 102.864L69.7985 93.9652L70.7814 93.4919L75.5343 98.922L75.5957 98.8924L74.3136 91.7909L75.2965 91.3176Z" fill="#1A1F2C"/>
<path d="M60.2445 105.348L58.5763 96.7813L59.5801 96.5858L65.558 102.403L65.6416 102.386L64.3318 95.6604L65.3691 95.4584L67.0374 104.025L66.0335 104.22L60.0357 98.3899L59.952 98.4062L61.2651 105.149L60.2445 105.348Z" fill="#1A1F2C"/>
</svg>
