<svg width="25" height="25" viewBox="0 0 25 25" fill="none" xmlns="http://www.w3.org/2000/svg">
<g clip-path="url(#clip0_17_2564)">
<path fill-rule="evenodd" clip-rule="evenodd" d="M0.919922 12.3089C0.919922 5.68595 6.29093 0.311035 12.9199 0.311035C19.5494 0.311035 24.9199 5.69078 24.9199 12.3132C24.9199 18.9361 19.5489 24.311 12.9199 24.311H11.9465V24.2677C5.77688 23.7719 0.919922 18.6044 0.919922 12.3089ZM13.2184 22.3603C18.6336 22.2024 22.9732 17.7619 22.9732 12.3132C22.9732 6.76422 18.4727 2.25743 12.9199 2.25743C7.36662 2.25743 2.86667 6.7604 2.86667 12.3089C2.86667 17.8571 7.37071 22.3603 12.9199 22.3603H13.2184Z" fill="#060318"/>
<path fill-rule="evenodd" clip-rule="evenodd" d="M8.06146 3.51767C7.928 3.47567 7.78966 3.43213 7.64551 3.38324L8.27101 1.54004C8.32846 1.55954 8.43192 1.59252 8.55271 1.63104C8.76972 1.70024 9.04265 1.78727 9.20521 1.84589L9.21395 1.84903L9.22261 1.85234C9.26708 1.86935 9.31475 1.88738 9.36473 1.90628C9.61655 2.00152 9.92723 2.11902 10.1867 2.24037L10.1982 2.24576L10.2497 2.27146C10.3718 2.32839 10.5551 2.41579 10.7079 2.48858C10.7936 2.52945 10.8697 2.56571 10.9199 2.58939L10.9431 2.60036L10.9657 2.61253C10.9709 2.61537 10.9771 2.61867 10.9841 2.6224C11.0367 2.65058 11.1348 2.70308 11.229 2.76062L11.2548 2.7764L11.2622 2.78152C11.2728 2.7877 11.2873 2.79596 11.3053 2.80597C11.321 2.81472 11.3361 2.82304 11.3513 2.83136C11.3542 2.83299 11.3572 2.83462 11.3601 2.83626C11.3685 2.84084 11.378 2.84606 11.3864 2.8508L11.387 2.85113C11.3913 2.85353 11.4024 2.85967 11.4151 2.8671C11.4266 2.8737 11.4443 2.88379 11.4664 2.89643C11.5341 2.93506 11.6435 2.99748 11.745 3.05695C11.8496 3.11822 12.0093 3.21258 12.1275 3.29541C12.2541 3.37315 12.3932 3.46955 12.4859 3.53373C12.5026 3.5453 12.5178 3.55581 12.5311 3.56499C12.6023 3.60837 12.6721 3.65756 12.7206 3.69234C12.7901 3.74211 12.8657 3.79848 12.9346 3.85031C12.9665 3.87425 12.9956 3.89622 13.023 3.91698C13.0596 3.9446 13.0934 3.97008 13.127 3.99525C13.1548 4.01603 13.1779 4.03315 13.1966 4.04672C13.2058 4.05343 13.213 4.05858 13.2184 4.06239C13.223 4.06565 13.2252 4.06712 13.2253 4.06719L13.2507 4.0841L13.2751 4.1027C14.3494 4.92107 15.3061 5.88253 16.1227 6.95413L16.1235 6.9551L16.1242 6.95612C17.0269 8.14708 17.7396 9.46914 18.2339 10.8761C19.7066 14.9894 19.2735 19.7416 16.9589 23.4928L15.3021 22.4709C17.2968 19.2381 17.6808 15.1042 16.4002 11.5296L16.3991 11.5267L16.3981 11.5237C15.9715 10.3085 15.3554 9.1646 14.5734 8.1326C13.8658 7.20436 13.0395 6.37307 12.1149 5.66593C12.0638 5.63045 12.0071 5.58834 11.9607 5.55365C11.9256 5.5274 11.8844 5.49628 11.8437 5.46556C11.8163 5.44494 11.7893 5.42454 11.7645 5.40594C11.6977 5.35569 11.637 5.3105 11.5867 5.2745C11.5419 5.2424 11.5233 5.23055 11.5234 5.23037C11.5232 5.23029 11.5234 5.23037 11.5234 5.23037L11.4947 5.21417L11.4609 5.19125C11.4111 5.1575 11.3669 5.12686 11.3263 5.09878C11.2372 5.03713 11.1658 4.98774 11.0934 4.94476L11.046 4.9166L11.0021 4.8833C11.0048 4.88536 11.0046 4.88525 11.0007 4.88266C10.9935 4.87786 10.9735 4.86455 10.936 4.84127C10.8866 4.81063 10.826 4.77444 10.7612 4.73649C10.6693 4.68272 10.5857 4.63498 10.5195 4.59721C10.4886 4.57959 10.4615 4.56414 10.4392 4.55128L10.4372 4.55012C10.4338 4.54824 10.4288 4.54543 10.4212 4.54126C10.4189 4.53999 10.4163 4.5386 10.4136 4.5371C10.3986 4.52885 10.3785 4.51779 10.3581 4.50643C10.3341 4.49312 10.3051 4.47677 10.2769 4.46023C10.2614 4.45119 10.2326 4.43424 10.2004 4.41332C10.1607 4.38969 10.1182 4.36685 10.0676 4.33967C10.0668 4.33925 10.0661 4.33884 10.0653 4.33843C10.0048 4.30978 9.92941 4.27385 9.84942 4.23568C9.6989 4.1639 9.53187 4.08429 9.41596 4.03038L9.40347 4.02457L9.35108 3.99839C9.1673 3.91318 8.94725 3.82977 8.7008 3.73632C8.64721 3.71601 8.59238 3.69522 8.5364 3.67384C8.38448 3.61932 8.22672 3.56967 8.06146 3.51767ZM10.4392 4.55128C10.4403 4.55188 10.4409 4.55222 10.4409 4.55222L10.4392 4.55128ZM10.4392 4.55128C10.4403 4.55188 10.4409 4.55222 10.4409 4.55222L10.4392 4.55128Z" fill="#060318"/>
<path fill-rule="evenodd" clip-rule="evenodd" d="M12.1605 8.14979C15.0984 7.61935 17.8094 5.97153 19.6636 3.62598L21.1909 4.83291C19.0482 7.54353 15.9201 9.4489 12.5062 10.0653C10.8064 10.3717 9.05966 10.3821 7.35483 10.0696C5.65466 9.76653 4.01408 9.15618 2.53027 8.2651L3.53264 6.59658C4.81124 7.36439 6.22833 7.89198 7.69878 8.15376L7.70133 8.15421L7.70388 8.1547C9.1698 8.42373 10.681 8.41653 12.1605 8.14979Z" fill="#060318"/>
<path fill-rule="evenodd" clip-rule="evenodd" d="M6.95996 22.1778C8.62196 13.6971 17.2647 9.01349 24.3331 10.94L23.8211 12.8179C17.8209 11.1825 10.3104 15.2039 8.8704 22.5521L6.95996 22.1778Z" fill="#060318"/>
</g>
<defs>
<clipPath id="clip0_17_2564">
<rect width="24" height="24" fill="white" transform="translate(0.919922 0.311035)"/>
</clipPath>
</defs>
</svg>
